<svg xmlns="http://www.w3.org/2000/svg" viewBox="0 0 256 256" role="img" aria-label="TypeYourMind logo candidate 1">
  <defs>
    <linearGradient id="g1" x1="48" y1="30" x2="206" y2="224" gradientUnits="userSpaceOnUse">
      <stop offset="0" stop-color="#8CA6B8"/>
      <stop offset="1" stop-color="#3F6175"/>
    </linearGradient>
  </defs>
  <rect width="256" height="256" rx="56" fill="#F4F7F8"/>
  <path d="M65 126c0-44 33-78 78-78 31 0 54 17 54 42 0 13-6 24-16 31 13 7 21 20 21 37 0 31-25 52-61 52H79c-8 0-14-6-14-14v-70Z" fill="url(#g1)"/>
  <path d="M92 107c10-21 28-34 51-34 21 0 34 12 34 28 0 15-10 27-26 31 18 4 29 15 29 31 0 18-15 30-38 30H96" fill="none" stroke="#F9FCFD" stroke-width="12" stroke-linecap="round" stroke-linejoin="round"/>
  <path d="M92 90v100M92 190h55" stroke="#213442" stroke-width="12" stroke-linecap="round"/>
  <path d="M115 107h47M115 132h36M115 157h50" stroke="#F9FCFD" stroke-width="9" stroke-linecap="round"/>
  <circle cx="178" cy="82" r="9" fill="#213442"/>
</svg>
