<svg xmlns="http://www.w3.org/2000/svg" viewBox="0 0 256 256" role="img" aria-label="TypeYourMind logo candidate 2">
  <defs>
    <linearGradient id="g2" x1="44" y1="44" x2="214" y2="212" gradientUnits="userSpaceOnUse">
      <stop offset="0" stop-color="#9BB4C5"/>
      <stop offset="1" stop-color="#4A6E82"/>
    </linearGradient>
  </defs>
  <rect width="256" height="256" rx="52" fill="#23313B"/>
  <path d="M71 96c8-29 34-50 67-50 40 0 70 30 70 68 0 26-14 49-35 60" fill="none" stroke="url(#g2)" stroke-width="18" stroke-linecap="round"/>
  <path d="M80 151c-20-22-19-57 2-78M110 188c-26-5-47-22-56-47" fill="none" stroke="#DDE8EC" stroke-width="13" stroke-linecap="round"/>
  <path d="M101 94c15-15 41-20 62-6M104 125c19-8 43-6 61 7M112 157c16 5 34 4 50-5" fill="none" stroke="#DDE8EC" stroke-width="9" stroke-linecap="round"/>
  <path d="M70 204h112M70 180h78M70 156h36" stroke="#F5F9FA" stroke-width="12" stroke-linecap="round"/>
  <path d="M190 180v31" stroke="#9BB4C5" stroke-width="10" stroke-linecap="round"/>
</svg>
